<?xml version="1.0" encoding="iso-8859-1"?>
<!-- Generator: Adobe Illustrator 19.0.0, SVG Export Plug-In . SVG Version: 6.00 Build 0)  -->
<svg version="1.1" id="Capa_1" xmlns="http://www.w3.org/2000/svg" xmlns:xlink="http://www.w3.org/1999/xlink" x="0px" y="0px"
	 viewBox="0 0 496 496" style="enable-background:new 0 0 496 496;" xml:space="preserve">
<g>
	<g>
		<path d="M488,160.077h-31.2l-367.2-64c-4-0.8-8,1.6-8.8,5.6l-15.2,58.4H8c-4.8,0-8,3.2-8,8v224c0,4.8,3.2,8,8,8h480
			c4.8,0,8-3.2,8-8v-224C496,163.277,492.8,160.077,488,160.077z M93.6,112.877l269.6,47.2H82.4L93.6,112.877z M480,384.077H16v-208
			h464V384.077z"/>
	</g>
</g>
<g>
	<g>
		<path d="M456,224.077c-13.6,0-24-10.4-24-24c0-4.8-3.2-8-8-8H72c-4.8,0-8,3.2-8,8c0,13.6-10.4,24-24,24c-4.8,0-8,3.2-8,8v96
			c0,4.8,3.2,8,8,8c13.6,0,24,10.4,24,24c0,4.8,3.2,8,8,8h352c4.8,0,8-3.2,8-8c0-13.6,10.4-24,24-24c4.8,0,8-3.2,8-8v-96
			C464,227.277,460.8,224.077,456,224.077z M448,320.877c-16,3.2-28,15.2-31.2,31.2H79.2c-3.2-16-15.2-28-31.2-31.2v-81.6
			c16-3.2,28-15.2,31.2-31.2h337.6c3.2,16,15.2,28,31.2,31.2V320.877z"/>
	</g>
</g>
<g>
	<g>
		<rect x="32" y="192.077" width="16" height="16"/>
	</g>
</g>
<g>
	<g>
		<rect x="448" y="192.077" width="16" height="16"/>
	</g>
</g>
<g>
	<g>
		<rect x="448" y="352.077" width="16" height="16"/>
	</g>
</g>
<g>
	<g>
		<rect x="32" y="352.077" width="16" height="16"/>
	</g>
</g>
<g>
	<g>
		<path d="M264,272.077h-32c-4.8,0-8-3.2-8-8s3.2-8,8-8h48v-16h-24v-16h-16v16h-8c-13.6,0-24,10.4-24,24c0,13.6,10.4,24,24,24h32
			c4.8,0,8,3.2,8,8s-3.2,8-8,8h-48v16h24v16h16v-16h8c13.6,0,24-10.4,24-24C288,282.477,277.6,272.077,264,272.077z"/>
	</g>
</g>
<g>
	<g>
		<path d="M112,248.077c-17.6,0-32,14.4-32,32c0,17.6,14.4,32,32,32c17.6,0,32-14.4,32-32C144,262.477,129.6,248.077,112,248.077z
			 M112,296.077c-8.8,0-16-7.2-16-16s7.2-16,16-16s16,7.2,16,16S120.8,296.077,112,296.077z"/>
	</g>
</g>
<g>
	<g>
		<path d="M384,248.077c-17.6,0-32,14.4-32,32c0,17.6,14.4,32,32,32c17.6,0,32-14.4,32-32C416,262.477,401.6,248.077,384,248.077z
			 M384,296.077c-8.8,0-16-7.2-16-16s7.2-16,16-16s16,7.2,16,16S392.8,296.077,384,296.077z"/>
	</g>
</g>
<g>
</g>
<g>
</g>
<g>
</g>
<g>
</g>
<g>
</g>
<g>
</g>
<g>
</g>
<g>
</g>
<g>
</g>
<g>
</g>
<g>
</g>
<g>
</g>
<g>
</g>
<g>
</g>
<g>
</g>
</svg>
